<?xml version="1.0" encoding="UTF-8"?><svg id="svg3317" xmlns="http://www.w3.org/2000/svg" width="141.11mm" height="33.51mm" viewBox="0 0 400 95"><defs><style>.cls-1{fill:#ff5100;}.cls-1,.cls-2{stroke-width:0px;}.cls-2{fill:#510c76;}</style></defs><path class="cls-1" d="M64.85,3.59h-10.85c-.7,0-1.27.57-1.27,1.27l.25,40.57c0,.25-.33.35-.47.13L26.1,4.58c-.39-.62-1.08-.99-1.82-.99h-11.93c-.7,0-1.27.57-1.27,1.27v63.14c0,.7.57,1.27,1.27,1.27h10.85c.7,0,1.27-.57,1.27-1.27V27.83c0-.25.33-.35.47-.13l26.14,40.59c.39.62,1.08.99,1.82.99h11.93c.7,0,1.27-.57,1.27-1.27V4.86c0-.7-.57-1.27-1.27-1.27h0Z"/><path class="cls-1" d="M247.13,28.87c-3.34-4.2-8.72-6.33-14.56-6.33-1.11,0-2.79.21-4.02.59-1.26.39-3.16,1.44-4.29,2.54-.16.16-.44.04-.44-.19v-.81c0-.7-.57-1.27-1.27-1.27h-10.71c-.7,0-1.27.57-1.27,1.27v43.32c0,.7.56,1.27,1.27,1.27h10.72c.7,0,1.27-.57,1.27-1.27,0,0,.04-26.4.04-26.67,0-4.12,3.39-6.55,7.25-6.55,4.67,0,7.04,3.32,7.29,6.99v26.23c0,.7.57,1.27,1.27,1.27h10.71c.7,0,1.27-.57,1.27-1.27v-22.44c0-7.68-1.37-12.71-4.54-16.69h0Z"/><path class="cls-1" d="M202.12,23.41h-10.69c-.71,0-1.28.57-1.28,1.28v.79c0,.21-.24.34-.42.21-2.89-2.08-6.45-3.22-9.88-3.22-5.93,0-11.21,2.02-15.7,6.02-5.21,4.67-7.85,10.66-7.85,17.81,0,6.19,2.04,11.6,6.07,16.08,4.67,5.21,10.55,7.85,17.48,7.85,3.44,0,6.76-1.11,9.9-3,.18-.11.39.02.39.22v.55c0,.71.57,1.28,1.28,1.28h10.69c.71,0,1.28-.57,1.28-1.28V24.69c0-.71-.57-1.28-1.28-1.28ZM180.03,57.95c-2.87,0-5.24-.98-7.26-3-2.05-2.05-3.09-4.97-3.09-8.66,0-3.16.77-5.75,2.29-7.69,2.06-2.61,4.63-3.87,7.87-3.87s5.49.96,7.38,2.93c2.03,2.11,3.06,5,3.06,8.59,0,3.17-.76,5.8-2.25,7.8-2,2.63-4.61,3.91-8,3.91h0Z"/><path class="cls-1" d="M118.45,23.41h-10.69c-.71,0-1.28.57-1.28,1.28v.79c0,.21-.24.34-.42.21-2.89-2.08-6.45-3.22-9.88-3.22-5.93,0-11.21,2.02-15.7,6.02-5.21,4.67-7.85,10.66-7.85,17.81,0,6.19,2.04,11.6,6.07,16.08,4.67,5.21,10.55,7.85,17.48,7.85,3.44,0,6.76-1.11,9.9-3,.18-.11.39.02.39.22v.55c0,.71.57,1.28,1.28,1.28h10.69c.71,0,1.28-.57,1.28-1.28V24.69c0-.71-.57-1.28-1.28-1.28ZM96.38,57.95c-2.87,0-5.24-.98-7.26-3-2.05-2.05-3.09-4.97-3.09-8.66,0-3.16.77-5.75,2.29-7.69,2.06-2.61,4.63-3.87,7.87-3.87s5.49.96,7.38,2.93c2.03,2.11,3.06,5,3.06,8.59,0,3.17-.76,5.8-2.25,7.8-2,2.63-4.61,3.91-8,3.91h0Z"/><path class="cls-1" d="M323.58,23.41h-10.69c-.71,0-1.28.57-1.28,1.28v.79c0,.21-.24.34-.42.21-2.89-2.08-6.45-3.22-9.88-3.22-5.93,0-11.21,2.02-15.7,6.02-5.21,4.67-7.85,10.66-7.85,17.81,0,6.19,2.04,11.6,6.07,16.08,4.67,5.21,10.55,7.85,17.48,7.85,3.44,0,6.76-1.11,9.9-3,.18-.11.39.02.39.22v.55c0,.71.57,1.28,1.28,1.28h10.69c.71,0,1.28-.57,1.28-1.28V24.69c0-.71-.57-1.28-1.28-1.28h0ZM301.5,57.95c-2.87,0-5.24-.98-7.26-3-2.05-2.05-3.09-4.97-3.09-8.66,0-3.16.77-5.75,2.29-7.69,2.06-2.61,4.63-3.87,7.87-3.87s5.49.96,7.38,2.93c2.03,2.11,3.06,5,3.06,8.59,0,3.17-.76,5.8-2.25,7.8-2,2.63-4.61,3.91-8,3.91h0Z"/><path class="cls-1" d="M149.25,23.58c-2.38,0-5.16,1.08-6.78,2.36-.17.13-.42.02-.42-.21v-1.07c0-.7-.57-1.27-1.27-1.27h-10.71c-.7,0-1.27.57-1.27,1.27v43.32c0,.7.57,1.27,1.27,1.27h10.71c.7,0,1.27-.57,1.27-1.27v-20.87c0-4.46.55-7.54,1.63-9.16.98-1.44,2.89-2.17,5.66-2.17.74,0,1.97,0,3.79.19.71.06,1.32-.6,1.3-1.32v-9.54c0-.64-.48-1.19-1.13-1.26-1.59-.19-2.96-.28-4.07-.28h.02Z"/><path class="cls-1" d="M271.84,5.93c-1.58-1.52-3.46-2.29-5.59-2.29s-4.12.75-5.74,2.25c-1.57,1.52-2.37,3.39-2.37,5.57s.8,4.15,2.36,5.65c1.53,1.53,3.44,2.31,5.65,2.31s4.11-.77,5.7-2.31c1.53-1.54,2.31-3.42,2.31-5.6s-.77-3.96-2.29-5.55c0,0-.02-.02-.03-.03h0Z"/><path class="cls-1" d="M271.49,23.41h-10.71c-.7,0-1.27.57-1.27,1.27v45.51c-.04,1.9-.88,8.12-9.54,8.71-.66.04-1.17.61-1.17,1.28v10.29h0v.03h0v.04c.03.69.58,1.23,1.27,1.23h.08c2.16-.11,21.53-1.59,22.57-20.3.03-.1.04-.21.04-.32V24.69c0-.7-.57-1.27-1.27-1.27h0Z"/><path class="cls-1" d="M349.37,4.71c-.43-.67-1.23-1.12-2.03-1.12h-12.4c-1,0-1.6,1.11-1.06,1.95l19.81,30.61c.11.17.11.38,0,.55l-19.81,30.62c-.55.84.06,1.95,1.06,1.95h12.45c.8,0,1.53-.4,1.96-1.06l19.34-30.05c.68-1.06.68-2.42,0-3.47l-19.32-29.99h0Z"/><path class="cls-2" d="M372.66,40.85c-.21-.31-.66-.31-.87,0l-6.47,10.04c-.68,1.06-.68,2.42,0,3.47l8.78,13.62c.52.81,1.4,1.29,2.35,1.29h12.2c1,0,1.61-1.11,1.06-1.95l-17.05-26.47ZM389.88,68.09h0Z"/><path class="cls-2" d="M374.11,4.88l-8.78,13.62c-.68,1.06-.68,2.42,0,3.47l6.47,10.05c.2.31.65.31.85,0l17.08-26.51c.53-.82-.06-1.91-1.04-1.91h-12.23c-.95,0-1.84.48-2.35,1.29Z"/></svg>